# Blender 4.2.0
# www.blender.org
mtllib hammer.mtl
o Cylinder
v 0.000000 1.000000 1.438080
v 0.707107 0.707107 1.438080
v 1.000000 -0.000000 1.438080
v 0.707107 -0.707107 1.438080
v 0.000000 -1.000000 1.438080
v -0.707107 -0.707107 1.438080
v -1.000000 -0.000000 1.438080
v -0.707107 0.707107 1.438080
v 0.000000 1.066852 0.638080
v -0.000000 1.076446 1.271350
v 0.761163 0.761162 1.271350
v 0.707107 0.773959 0.638080
v 1.076446 -0.000000 1.271350
v 1.000000 -0.000000 0.638080
v 0.761163 -0.761163 1.271350
v 0.707107 -0.581759 0.638080
v -0.000000 -1.076446 1.271350
v 0.000000 -0.874652 0.638080
v -0.761163 -0.761163 1.271350
v -0.707107 -0.581759 0.638080
v -1.076446 -0.000000 1.271350
v -1.000000 -0.000000 0.638080
v -0.761163 0.761162 1.271350
v -0.707107 0.773959 0.638080
v -0.000000 1.076446 1.056061
v 0.761163 0.761162 1.056061
v 1.076446 -0.000000 1.056061
v 0.761163 -0.761163 1.056061
v -0.000000 -1.076446 1.056061
v -0.761163 -0.761163 1.056061
v -1.076446 -0.000000 1.056061
v -0.761163 0.761162 1.056061
v 0.000000 1.066852 0.000000
v 0.707107 0.773959 0.000000
v 1.000000 0.000000 0.000000
v 0.707107 -0.581759 -0.000000
v 0.000000 -0.874652 -0.000000
v -0.707107 -0.581759 -0.000000
v -1.000000 0.000000 0.000000
v -0.707107 0.773959 0.000000
v 0.000000 1.066852 0.197776
v 0.707107 0.773959 0.197776
v 1.000000 0.000000 0.197776
v 0.707107 -0.581759 0.197776
v 0.000000 -0.874652 0.197776
v -0.707107 -0.581759 0.197776
v -1.000000 0.000000 0.197776
v -0.707107 0.773959 0.197776
v 0.000000 1.000000 -1.438080
v 0.707107 0.707107 -1.438080
v 1.000000 0.000000 -1.438080
v 0.707107 -0.707107 -1.438080
v 0.000000 -1.000000 -1.438080
v -0.707107 -0.707107 -1.438080
v -1.000000 0.000000 -1.438080
v -0.707107 0.707107 -1.438080
v 0.000000 1.066852 -0.638080
v -0.000000 1.076446 -1.271350
v 0.761163 0.761163 -1.271350
v 0.707107 0.773959 -0.638080
v 1.076446 0.000000 -1.271350
v 1.000000 0.000000 -0.638080
v 0.761163 -0.761162 -1.271350
v 0.707107 -0.581759 -0.638080
v -0.000000 -1.076446 -1.271350
v 0.000000 -0.874652 -0.638080
v -0.761163 -0.761162 -1.271350
v -0.707107 -0.581759 -0.638080
v -1.076446 0.000000 -1.271350
v -1.000000 0.000000 -0.638080
v -0.761163 0.761163 -1.271350
v -0.707107 0.773959 -0.638080
v -0.000000 1.076446 -1.056061
v 0.761163 0.761163 -1.056061
v 1.076446 0.000000 -1.056061
v 0.761163 -0.761162 -1.056061
v -0.000000 -1.076446 -1.056061
v -0.761163 -0.761162 -1.056061
v -1.076446 0.000000 -1.056061
v -0.761163 0.761163 -1.056061
v 0.000000 1.066852 -0.197776
v 0.707107 0.773959 -0.197776
v 1.000000 0.000000 -0.197776
v 0.707107 -0.581759 -0.197776
v 0.000000 -0.874652 -0.197776
v -0.707107 -0.581759 -0.197776
v -1.000000 0.000000 -0.197776
v -0.707107 0.773959 -0.197776
vn 0.3524 0.8507 0.3901
vn 0.8507 0.3524 0.3901
vn 0.8507 -0.3524 0.3901
vn 0.3524 -0.8507 0.3901
vn -0.3524 -0.8507 0.3901
vn -0.8507 -0.3524 0.3901
vn -0.0000 -0.0000 1.0000
vn -0.8507 0.3524 0.3901
vn -0.3524 0.8507 0.3901
vn -0.3827 0.9239 -0.0000
vn -0.9353 0.3539 -0.0000
vn -0.9239 0.3827 -0.0000
vn -0.8932 -0.4497 -0.0000
vn -0.9239 -0.3827 -0.0000
vn -0.3827 -0.9239 -0.0000
vn 0.3827 -0.9239 -0.0000
vn 0.8932 -0.4497 -0.0000
vn 0.9239 -0.3827 -0.0000
vn 0.9353 0.3539 -0.0000
vn 0.9239 0.3827 -0.0000
vn 0.3827 0.9239 -0.0000
vn 0.3826 0.9237 -0.0212
vn 0.9208 0.3648 -0.1382
vn 0.8876 -0.4020 -0.2248
vn 0.3495 -0.8438 -0.4073
vn -0.3495 -0.8438 -0.4073
vn -0.8876 -0.4020 -0.2248
vn -0.9208 0.3648 -0.1382
vn -0.3826 0.9237 -0.0212
vn 0.3524 0.8507 -0.3901
vn 0.8507 0.3524 -0.3901
vn 0.8507 -0.3524 -0.3901
vn 0.3524 -0.8507 -0.3901
vn -0.3524 -0.8507 -0.3901
vn -0.8507 -0.3524 -0.3901
vn -0.0000 -0.0000 -1.0000
vn -0.8507 0.3524 -0.3901
vn -0.3524 0.8507 -0.3901
vn 0.3826 0.9237 0.0212
vn 0.9208 0.3648 0.1382
vn 0.8876 -0.4020 0.2248
vn 0.3495 -0.8438 0.4073
vn -0.3495 -0.8438 0.4073
vn -0.8876 -0.4020 0.2248
vn -0.9208 0.3648 0.1382
vn -0.3826 0.9237 0.0212
vt 1.000000 0.900000
vt 1.000000 1.000000
vt 0.875000 1.000000
vt 0.875000 0.900000
vt 0.750000 1.000000
vt 0.750000 0.900000
vt 0.625000 1.000000
vt 0.625000 0.900000
vt 0.500000 1.000000
vt 0.500000 0.900000
vt 0.375000 1.000000
vt 0.375000 0.900000
vt 0.250000 1.000000
vt 0.250000 0.900000
vt 0.419706 0.419706
vt 0.250000 0.490000
vt 0.080294 0.419706
vt 0.010000 0.250000
vt 0.080294 0.080294
vt 0.250000 0.010000
vt 0.419706 0.080294
vt 0.490000 0.250000
vt 0.125000 1.000000
vt 0.125000 0.900000
vt 0.000000 1.000000
vt 0.000000 0.900000
vt 0.125000 0.765498
vt 0.125000 0.800000
vt 0.000000 0.800000
vt 0.000000 0.765498
vt 0.125000 0.850000
vt 0.000000 0.850000
vt 0.250000 0.765498
vt 0.250000 0.800000
vt 0.250000 0.850000
vt 0.375000 0.765498
vt 0.375000 0.800000
vt 0.375000 0.850000
vt 0.500000 0.765498
vt 0.500000 0.800000
vt 0.500000 0.850000
vt 0.625000 0.765498
vt 0.625000 0.800000
vt 0.625000 0.850000
vt 0.750000 0.765498
vt 0.750000 0.800000
vt 0.750000 0.850000
vt 0.875000 0.765498
vt 0.875000 0.800000
vt 0.875000 0.850000
vt 1.000000 0.765498
vt 1.000000 0.800000
vt 1.000000 0.850000
vt 1.000000 0.750000
vt 0.875000 0.750000
vt 0.750000 0.750000
vt 0.625000 0.750000
vt 0.500000 0.750000
vt 0.375000 0.750000
vt 0.250000 0.750000
vt 0.125000 0.750000
vt 0.000000 0.750000
s 0
usemtl wood
f 10/1/1 1/2/1 2/3/1 11/4/1
f 11/4/2 2/3/2 3/5/2 13/6/2
f 13/6/3 3/5/3 4/7/3 15/8/3
f 15/8/4 4/7/4 5/9/4 17/10/4
f 17/10/5 5/9/5 6/11/5 19/12/5
f 19/12/6 6/11/6 7/13/6 21/14/6
f 2/15/7 1/16/7 8/17/7 7/18/7 6/19/7 5/20/7 4/21/7 3/22/7
f 21/14/8 7/13/8 8/23/8 23/24/8
f 23/24/9 8/23/9 1/25/9 10/26/9
f 48/27/10 24/28/10 9/29/10 41/30/10
f 32/31/10 23/24/10 10/26/10 25/32/10
f 47/33/11 22/34/11 24/28/11 48/27/11
f 31/35/12 21/14/12 23/24/12 32/31/12
f 46/36/13 20/37/13 22/34/13 47/33/13
f 30/38/14 19/12/14 21/14/14 31/35/14
f 45/39/15 18/40/15 20/37/15 46/36/15
f 29/41/15 17/10/15 19/12/15 30/38/15
f 44/42/16 16/43/16 18/40/16 45/39/16
f 28/44/16 15/8/16 17/10/16 29/41/16
f 43/45/17 14/46/17 16/43/17 44/42/17
f 27/47/18 13/6/18 15/8/18 28/44/18
f 42/48/19 12/49/19 14/46/19 43/45/19
f 26/50/20 11/4/20 13/6/20 27/47/20
f 41/51/21 9/52/21 12/49/21 42/48/21
f 25/53/21 10/1/21 11/4/21 26/50/21
f 9/52/22 25/53/22 26/50/22 12/49/22
f 12/49/23 26/50/23 27/47/23 14/46/23
f 14/46/24 27/47/24 28/44/24 16/43/24
f 16/43/25 28/44/25 29/41/25 18/40/25
f 18/40/26 29/41/26 30/38/26 20/37/26
f 20/37/27 30/38/27 31/35/27 22/34/27
f 22/34/28 31/35/28 32/31/28 24/28/28
f 24/28/29 32/31/29 25/32/29 9/29/29
f 33/54/21 41/51/21 42/48/21 34/55/21
f 34/55/19 42/48/19 43/45/19 35/56/19
f 35/56/17 43/45/17 44/42/17 36/57/17
f 36/57/16 44/42/16 45/39/16 37/58/16
f 37/58/15 45/39/15 46/36/15 38/59/15
f 38/59/13 46/36/13 47/33/13 39/60/13
f 39/60/11 47/33/11 48/27/11 40/61/11
f 40/61/10 48/27/10 41/30/10 33/62/10
f 58/1/30 59/4/30 50/3/30 49/2/30
f 59/4/31 61/6/31 51/5/31 50/3/31
f 61/6/32 63/8/32 52/7/32 51/5/32
f 63/8/33 65/10/33 53/9/33 52/7/33
f 65/10/34 67/12/34 54/11/34 53/9/34
f 67/12/35 69/14/35 55/13/35 54/11/35
f 50/15/36 51/22/36 52/21/36 53/20/36 54/19/36 55/18/36 56/17/36 49/16/36
f 69/14/37 71/24/37 56/23/37 55/13/37
f 71/24/38 58/26/38 49/25/38 56/23/38
f 88/27/10 81/30/10 57/29/10 72/28/10
f 80/31/10 73/32/10 58/26/10 71/24/10
f 87/33/11 88/27/11 72/28/11 70/34/11
f 79/35/12 80/31/12 71/24/12 69/14/12
f 86/36/13 87/33/13 70/34/13 68/37/13
f 78/38/14 79/35/14 69/14/14 67/12/14
f 85/39/15 86/36/15 68/37/15 66/40/15
f 77/41/15 78/38/15 67/12/15 65/10/15
f 84/42/16 85/39/16 66/40/16 64/43/16
f 76/44/16 77/41/16 65/10/16 63/8/16
f 83/45/17 84/42/17 64/43/17 62/46/17
f 75/47/18 76/44/18 63/8/18 61/6/18
f 82/48/19 83/45/19 62/46/19 60/49/19
f 74/50/20 75/47/20 61/6/20 59/4/20
f 81/51/21 82/48/21 60/49/21 57/52/21
f 73/53/21 74/50/21 59/4/21 58/1/21
f 57/52/39 60/49/39 74/50/39 73/53/39
f 60/49/40 62/46/40 75/47/40 74/50/40
f 62/46/41 64/43/41 76/44/41 75/47/41
f 64/43/42 66/40/42 77/41/42 76/44/42
f 66/40/43 68/37/43 78/38/43 77/41/43
f 68/37/44 70/34/44 79/35/44 78/38/44
f 70/34/45 72/28/45 80/31/45 79/35/45
f 72/28/46 57/29/46 73/32/46 80/31/46
f 33/54/21 34/55/21 82/48/21 81/51/21
f 34/55/19 35/56/19 83/45/19 82/48/19
f 35/56/17 36/57/17 84/42/17 83/45/17
f 36/57/16 37/58/16 85/39/16 84/42/16
f 37/58/15 38/59/15 86/36/15 85/39/15
f 38/59/13 39/60/13 87/33/13 86/36/13
f 39/60/11 40/61/11 88/27/11 87/33/11
f 40/61/10 33/62/10 81/30/10 88/27/10
o Cylinder.001
v 0.000000 -3.570106 -0.306810
v 0.000000 -0.082354 -0.306810
v 0.216947 -3.570106 -0.216947
v 0.216947 -0.082354 -0.216947
v 0.306810 -3.570106 0.000000
v 0.306810 -0.082354 0.000000
v 0.216947 -3.570106 0.216947
v 0.216947 -0.082354 0.216947
v 0.000000 -3.570106 0.306810
v 0.000000 -0.082354 0.306810
v -0.216947 -3.570106 0.216947
v -0.216947 -0.082354 0.216947
v -0.306810 -3.570106 0.000000
v -0.306810 -0.082354 0.000000
v -0.216947 -3.570106 -0.216947
v -0.216947 -0.082354 -0.216947
v 0.000000 -0.978854 -0.306810
v 0.216947 -0.978854 -0.216947
v 0.306810 -0.978854 0.000000
v 0.216947 -0.978854 0.216947
v 0.000000 -0.978854 0.306810
v -0.216947 -0.978854 0.216947
v -0.306810 -0.978854 0.000000
v -0.216947 -0.978854 -0.216947
v 0.216947 -1.418878 -0.216947
v 0.306810 -1.418878 0.000000
v 0.216947 -1.418878 0.216947
v 0.000000 -1.418878 0.306810
v -0.216947 -1.418878 0.216947
v -0.306810 -1.418878 0.000000
v -0.216947 -1.418878 -0.216947
v 0.000000 -1.418878 -0.306810
vn 0.3827 -0.0000 -0.9239
vn 0.9239 -0.0000 -0.3827
vn 0.9239 -0.0000 0.3827
vn 0.3827 -0.0000 0.9239
vn -0.3827 -0.0000 0.9239
vn -0.9239 -0.0000 0.3827
vn -0.0000 1.0000 -0.0000
vn -0.9239 -0.0000 -0.3827
vn -0.3827 -0.0000 -0.9239
vn -0.0000 -1.0000 -0.0000
vt 1.000000 0.871479
vt 1.000000 1.000000
vt 0.875000 1.000000
vt 0.875000 0.871479
vt 0.750000 1.000000
vt 0.750000 0.871479
vt 0.625000 1.000000
vt 0.625000 0.871479
vt 0.500000 1.000000
vt 0.500000 0.871479
vt 0.375000 1.000000
vt 0.375000 0.871479
vt 0.250000 1.000000
vt 0.250000 0.871479
vt 0.419706 0.419706
vt 0.250000 0.490000
vt 0.080294 0.419706
vt 0.010000 0.250000
vt 0.080294 0.080294
vt 0.250000 0.010000
vt 0.419706 0.080294
vt 0.490000 0.250000
vt 0.125000 1.000000
vt 0.125000 0.871479
vt 0.000000 1.000000
vt 0.000000 0.871479
vt 0.750000 0.490000
vt 0.919706 0.419706
vt 0.990000 0.250000
vt 0.919706 0.080294
vt 0.750000 0.010000
vt 0.580294 0.080294
vt 0.510000 0.250000
vt 0.580294 0.419706
vt 0.125000 0.808398
vt 0.000000 0.808398
vt 0.250000 0.808398
vt 0.375000 0.808398
vt 0.500000 0.808398
vt 0.625000 0.808398
vt 0.750000 0.808398
vt 0.875000 0.808398
vt 1.000000 0.808398
vt 1.000000 0.500000
vt 0.875000 0.500000
vt 0.750000 0.500000
vt 0.625000 0.500000
vt 0.500000 0.500000
vt 0.375000 0.500000
vt 0.250000 0.500000
vt 0.125000 0.500000
vt 0.000000 0.500000
s 0
usemtl wood
f 105/63/47 90/64/47 92/65/47 106/66/47
f 106/66/48 92/65/48 94/67/48 107/68/48
f 107/68/49 94/67/49 96/69/49 108/70/49
f 108/70/50 96/69/50 98/71/50 109/72/50
f 109/72/51 98/71/51 100/73/51 110/74/51
f 110/74/52 100/73/52 102/75/52 111/76/52
f 92/77/53 90/78/53 104/79/53 102/80/53 100/81/53 98/82/53 96/83/53 94/84/53
f 111/76/54 102/75/54 104/85/54 112/86/54
f 112/86/55 104/85/55 90/87/55 105/88/55
f 89/89/56 91/90/56 93/91/56 95/92/56 97/93/56 99/94/56 101/95/56 103/96/56
f 119/97/55 112/86/55 105/88/55 120/98/55
f 118/99/54 111/76/54 112/86/54 119/97/54
f 117/100/52 110/74/52 111/76/52 118/99/52
f 116/101/51 109/72/51 110/74/51 117/100/51
f 115/102/50 108/70/50 109/72/50 116/101/50
f 114/103/49 107/68/49 108/70/49 115/102/49
f 113/104/48 106/66/48 107/68/48 114/103/48
f 120/105/47 105/63/47 106/66/47 113/104/47
f 89/106/47 120/105/47 113/104/47 91/107/47
f 91/107/48 113/104/48 114/103/48 93/108/48
f 93/108/49 114/103/49 115/102/49 95/109/49
f 95/109/50 115/102/50 116/101/50 97/110/50
f 97/110/51 116/101/51 117/100/51 99/111/51
f 99/111/52 117/100/52 118/99/52 101/112/52
f 101/112/54 118/99/54 119/97/54 103/113/54
f 103/113/55 119/97/55 120/98/55 89/114/55
o Cylinder.002
v -0.000000 -0.957866 -0.336078
v 0.237643 -0.957866 -0.237643
v 0.336078 -0.957866 0.000000
v 0.237643 -0.957866 0.237643
v -0.000000 -0.957866 0.336078
v -0.237643 -0.957866 0.237643
v -0.336078 -0.957866 0.000000
v -0.237643 -0.957866 -0.237643
v 0.237643 -1.439866 -0.237643
v 0.336078 -1.439866 0.000000
v 0.237643 -1.439866 0.237643
v -0.000000 -1.439866 0.336078
v -0.237643 -1.439866 0.237643
v -0.336078 -1.439866 0.000000
v -0.237643 -1.439866 -0.237643
v -0.000000 -1.439866 -0.336078
vn -0.3827 -0.0000 -0.9239
vn -0.9239 -0.0000 -0.3827
vn -0.9239 -0.0000 0.3827
vn -0.3827 -0.0000 0.9239
vn 0.3827 -0.0000 0.9239
vn 0.9239 -0.0000 0.3827
vn 0.9239 -0.0000 -0.3827
vn 0.3827 -0.0000 -0.9239
vt 0.125000 0.808398
vt 0.125000 0.871479
vt 0.000000 0.871479
vt 0.000000 0.808398
vt 0.250000 0.808398
vt 0.250000 0.871479
vt 0.375000 0.808398
vt 0.375000 0.871479
vt 0.500000 0.808398
vt 0.500000 0.871479
vt 0.625000 0.808398
vt 0.625000 0.871479
vt 0.750000 0.808398
vt 0.750000 0.871479
vt 0.875000 0.808398
vt 0.875000 0.871479
vt 1.000000 0.808398
vt 1.000000 0.871479
s 0
usemtl cover
f 135/115/57 128/116/57 121/117/57 136/118/57
f 134/119/58 127/120/58 128/116/58 135/115/58
f 133/121/59 126/122/59 127/120/59 134/119/59
f 132/123/60 125/124/60 126/122/60 133/121/60
f 131/125/61 124/126/61 125/124/61 132/123/61
f 130/127/62 123/128/62 124/126/62 131/125/62
f 129/129/63 122/130/63 123/128/63 130/127/63
f 136/131/64 121/132/64 122/130/64 129/129/64
o Cylinder.003
v -0.000000 -3.179312 -0.336078
v 0.237643 -3.179312 -0.237643
v 0.336078 -3.179312 0.000000
v 0.237643 -3.179312 0.237643
v -0.000000 -3.179312 0.336078
v -0.237643 -3.179312 0.237643
v -0.336078 -3.179312 0.000000
v -0.237643 -3.179312 -0.237643
v 0.237643 -3.661312 -0.237643
v 0.336078 -3.661312 0.000000
v 0.237643 -3.661312 0.237643
v -0.000000 -3.661312 0.336078
v -0.237643 -3.661312 0.237643
v -0.336078 -3.661312 0.000000
v -0.237643 -3.661312 -0.237643
v -0.000000 -3.661312 -0.336078
vn -0.3827 -0.0000 -0.9239
vn -0.9239 -0.0000 -0.3827
vn -0.9239 -0.0000 0.3827
vn -0.3827 -0.0000 0.9239
vn 0.3827 -0.0000 0.9239
vn 0.9239 -0.0000 0.3827
vn 0.9239 -0.0000 -0.3827
vn 0.3827 -0.0000 -0.9239
vn -0.0000 -1.0000 -0.0000
vt 0.125000 0.808398
vt 0.125000 0.871479
vt 0.000000 0.871479
vt 0.000000 0.808398
vt 0.250000 0.808398
vt 0.250000 0.871479
vt 0.375000 0.808398
vt 0.375000 0.871479
vt 0.500000 0.808398
vt 0.500000 0.871479
vt 0.625000 0.808398
vt 0.625000 0.871479
vt 0.750000 0.808398
vt 0.750000 0.871479
vt 0.875000 0.808398
vt 0.875000 0.871479
vt 1.000000 0.808398
vt 1.000000 0.871479
s 0
usemtl cover
f 151/133/65 144/134/65 137/135/65 152/136/65
f 150/137/66 143/138/66 144/134/66 151/133/66
f 149/139/67 142/140/67 143/138/67 150/137/67
f 148/141/68 141/142/68 142/140/68 149/139/68
f 147/143/69 140/144/69 141/142/69 148/141/69
f 146/145/70 139/146/70 140/144/70 147/143/70
f 145/147/71 138/148/71 139/146/71 146/145/71
f 152/149/72 137/150/72 138/148/72 145/147/72
f 152/136/73 145/147/73 146/145/73 147/143/73 148/141/73 149/139/73 150/137/73 151/133/73
o Cylinder.004
v -0.000000 1.110879 0.000000
v 0.738402 0.805023 0.000000
v 1.044258 -0.003190 0.000000
v 0.738402 -0.610696 -0.000000
v -0.000000 -0.916552 -0.000000
v -0.738402 -0.610696 -0.000000
v -1.044258 -0.003190 0.000000
v -0.738402 0.805023 0.000000
v -0.000000 1.110879 0.206529
v 0.738402 0.805023 0.206529
v 1.044258 -0.003190 0.206529
v 0.738402 -0.610696 0.206529
v -0.000000 -0.916552 0.206529
v -0.738402 -0.610696 0.206529
v -1.044258 -0.003190 0.206529
v -0.738402 0.805023 0.206529
v -0.000000 1.110879 -0.206529
v 0.738402 0.805023 -0.206529
v 1.044258 -0.003190 -0.206529
v 0.738402 -0.610696 -0.206529
v -0.000000 -0.916552 -0.206529
v -0.738402 -0.610696 -0.206529
v -1.044258 -0.003190 -0.206529
v -0.738402 0.805023 -0.206529
vn 0.3827 0.9239 -0.0000
vn 0.9353 0.3539 -0.0000
vn 0.8932 -0.4497 -0.0000
vn 0.3827 -0.9239 -0.0000
vn -0.3827 -0.9239 -0.0000
vn -0.8932 -0.4497 -0.0000
vn -0.9353 0.3539 -0.0000
vn -0.3827 0.9239 -0.0000
vt 1.000000 0.750000
vt 1.000000 0.765498
vt 0.875000 0.765498
vt 0.875000 0.750000
vt 0.750000 0.765498
vt 0.750000 0.750000
vt 0.625000 0.765498
vt 0.625000 0.750000
vt 0.500000 0.765498
vt 0.500000 0.750000
vt 0.375000 0.765498
vt 0.375000 0.750000
vt 0.250000 0.765498
vt 0.250000 0.750000
vt 0.125000 0.765498
vt 0.125000 0.750000
vt 0.000000 0.765498
vt 0.000000 0.750000
s 0
usemtl cover
f 153/151/74 161/152/74 162/153/74 154/154/74
f 154/154/75 162/153/75 163/155/75 155/156/75
f 155/156/76 163/155/76 164/157/76 156/158/76
f 156/158/77 164/157/77 165/159/77 157/160/77
f 157/160/78 165/159/78 166/161/78 158/162/78
f 158/162/79 166/161/79 167/163/79 159/164/79
f 159/164/80 167/163/80 168/165/80 160/166/80
f 160/166/81 168/165/81 161/167/81 153/168/81
f 153/151/74 154/154/74 170/153/74 169/152/74
f 154/154/75 155/156/75 171/155/75 170/153/75
f 155/156/76 156/158/76 172/157/76 171/155/76
f 156/158/77 157/160/77 173/159/77 172/157/77
f 157/160/78 158/162/78 174/161/78 173/159/78
f 158/162/79 159/164/79 175/163/79 174/161/79
f 159/164/80 160/166/80 176/165/80 175/163/80
f 160/166/81 153/168/81 169/167/81 176/165/81
