# Blender 4.2.0
# www.blender.org
mtllib map.mtl
o Cube
v -24.297531 -2.397657 21.384954
v -23.290293 11.988626 20.377714
v -24.297531 -2.397657 -31.636992
v -23.290293 11.988626 -30.629751
v 42.288849 -2.397657 21.384954
v 41.281609 11.988626 20.377714
v 42.288849 -2.397657 -31.636992
v 41.281609 11.988626 -30.629751
v -24.297531 11.988626 21.384954
v -24.297531 11.988626 -31.636992
v 42.288849 11.988626 -31.636992
v 42.288849 11.988626 21.384954
v -12.273695 -1.287413 9.361115
v -12.273695 -1.287413 -19.613153
v 30.265011 -1.287413 -19.613153
v 30.265011 -1.287413 9.361115
v -23.290293 -1.287413 20.377714
v -23.290293 -1.287413 -30.629751
v 41.281609 -1.287413 -30.629751
v 41.281609 -1.287413 20.377714
v -12.273695 -1.287413 3.566262
v -12.273695 -1.287413 -2.228592
v -12.273695 -1.287413 -8.023446
v -12.273695 -1.287413 -13.818300
v -3.765953 -1.287413 -19.613153
v 4.741787 -1.287413 -19.613153
v 13.249529 -1.287413 -19.613153
v 21.757271 -1.287413 -19.613153
v 30.265011 -1.287413 -13.818297
v 30.265011 -1.287413 -8.023445
v 30.265011 -1.287413 -2.228591
v 30.265011 -1.287413 3.566263
v 21.757269 -1.287413 9.361115
v 13.249527 -1.287413 9.361115
v 4.741786 -1.287413 9.361115
v -3.765954 -1.287413 9.361115
v 21.757271 2.653525 -13.818297
v 21.757271 2.653525 -8.023445
v 21.757271 2.653525 -2.228591
v 21.757271 2.653525 3.566263
v 13.249529 2.653525 -13.818297
v 13.249529 2.653525 -8.023445
v 13.249529 2.653525 -2.228591
v 13.249527 2.653525 3.566263
v 4.741787 2.653525 -13.818297
v 4.741787 2.653525 -8.023445
v 4.741787 2.653525 -2.228591
v 4.741787 2.653525 3.566263
v -3.765953 2.653525 -13.818297
v -3.765953 2.653525 -8.023445
v -3.765953 2.653525 -2.228591
v -3.765954 2.653525 3.566263
vn -1.0000 -0.0000 -0.0000
vn -0.0000 -0.0000 -1.0000
vn 1.0000 -0.0000 -0.0000
vn -0.0000 -0.0000 1.0000
vn -0.0000 -1.0000 -0.0000
vn -0.0000 1.0000 -0.0000
vn -0.2142 0.9248 0.3145
vn 0.2142 0.9248 0.3145
vn -0.0000 0.8269 0.5624
vn 0.2142 0.9248 -0.3145
vn 0.4203 0.9074 -0.0000
vn -0.0000 0.8269 -0.5624
vn -0.2142 0.9248 -0.3145
vn -0.4203 0.9074 -0.0000
vt 0.375000 0.000000
vt 0.625000 0.000000
vt 0.625000 0.250000
vt 0.375000 0.250000
vt 0.625000 0.500000
vt 0.375000 0.500000
vt 0.625000 0.750000
vt 0.375000 0.750000
vt 0.625000 1.000000
vt 0.375000 1.000000
vt 0.125000 0.500000
vt 0.125000 0.750000
vt 0.639084 0.735916
vt 0.639084 0.514084
vt 0.860916 0.735916
vt 0.860916 0.514084
vt 0.875000 0.500000
vt 0.875000 0.750000
vt 0.793842 0.662803
vt 0.823069 0.662803
vt 0.823069 0.688005
vt 0.793842 0.688005
vt 0.823069 0.637601
vt 0.823069 0.612399
vt 0.823069 0.587197
vt 0.823069 0.561995
vt 0.793842 0.561995
vt 0.764614 0.561995
vt 0.735386 0.561995
vt 0.706158 0.561995
vt 0.676931 0.561995
vt 0.676931 0.587197
vt 0.676931 0.612399
vt 0.676931 0.637601
vt 0.676931 0.662803
vt 0.676931 0.688005
vt 0.706158 0.688005
vt 0.735386 0.688005
vt 0.764614 0.688005
vt 0.706158 0.662803
vt 0.735386 0.662803
vt 0.764614 0.662803
vt 0.706158 0.587197
vt 0.706158 0.612399
vt 0.706158 0.637601
vt 0.735386 0.587197
vt 0.735386 0.612399
vt 0.735386 0.637601
vt 0.764614 0.587197
vt 0.764614 0.612399
vt 0.764614 0.637601
vt 0.793842 0.587197
vt 0.793842 0.612399
vt 0.793842 0.637601
s 0
f 1/1/1 9/2/1 10/3/1 3/4/1
f 3/4/2 10/3/2 11/5/2 7/6/2
f 7/6/3 11/5/3 12/7/3 5/8/3
f 5/8/4 12/7/4 9/9/4 1/10/4
f 3/11/5 7/6/5 5/8/5 1/12/5
f 6/13/1 8/14/1 19/14/1 20/13/1
f 2/15/6 4/16/6 10/17/6 9/18/6
f 4/16/6 8/14/6 11/5/6 10/17/6
f 8/14/6 6/13/6 12/7/6 11/5/6
f 6/13/6 2/15/6 9/18/6 12/7/6
f 52/19/7 21/20/7 13/21/7 36/22/7
f 4/16/3 2/15/3 17/15/3 18/16/3
f 2/15/2 6/13/2 20/13/2 17/15/2
f 8/14/4 4/16/4 18/16/4 19/14/4
f 13/21/6 21/20/6 22/23/6 23/24/6 24/25/6 14/26/6 18/16/6 17/15/6
f 14/26/6 25/27/6 26/28/6 27/29/6 28/30/6 15/31/6 19/14/6 18/16/6
f 15/31/6 29/32/6 30/33/6 31/34/6 32/35/6 16/36/6 20/13/6 19/14/6
f 16/36/6 33/37/6 34/38/6 35/39/6 36/22/6 13/21/6 17/15/6 20/13/6
f 32/35/8 40/40/8 33/37/8 16/36/8
f 40/40/9 44/41/9 34/38/9 33/37/9
f 44/41/9 48/42/9 35/39/9 34/38/9
f 48/42/9 52/19/9 36/22/9 35/39/9
f 15/31/10 28/30/10 37/43/10 29/32/10
f 29/32/11 37/43/11 38/44/11 30/33/11
f 30/33/11 38/44/11 39/45/11 31/34/11
f 31/34/11 39/45/11 40/40/11 32/35/11
f 28/30/12 27/29/12 41/46/12 37/43/12
f 37/43/6 41/46/6 42/47/6 38/44/6
f 38/44/6 42/47/6 43/48/6 39/45/6
f 39/45/6 43/48/6 44/41/6 40/40/6
f 27/29/12 26/28/12 45/49/12 41/46/12
f 41/46/6 45/49/6 46/50/6 42/47/6
f 42/47/6 46/50/6 47/51/6 43/48/6
f 43/48/6 47/51/6 48/42/6 44/41/6
f 26/28/12 25/27/12 49/52/12 45/49/12
f 45/49/6 49/52/6 50/53/6 46/50/6
f 46/50/6 50/53/6 51/54/6 47/51/6
f 47/51/6 51/54/6 52/19/6 48/42/6
f 25/27/13 14/26/13 24/25/13 49/52/13
f 49/52/14 24/25/14 23/24/14 50/53/14
f 50/53/14 23/24/14 22/23/14 51/54/14
f 51/54/14 22/23/14 21/20/14 52/19/14
