# Blender 4.2.0
# www.blender.org
mtllib MAP2.mtl
o Plane
v -5.000000 0.000000 5.000000
v 5.000000 0.000000 5.000000
v -5.000000 0.000000 -5.000000
v 5.000000 0.000000 -5.000000
vn -0.0000 1.0000 -0.0000
vt 0.000000 0.000000
vt 1.000000 0.000000
vt 1.000000 1.000000
vt 0.000000 1.000000
s 0
usemtl path
f 1/1/1 2/2/1 4/3/1 3/4/1
o Cube
v -5.000000 -9.842602 5.000000
v -4.530645 0.157398 4.530645
v -5.000000 -9.842602 -5.000000
v -4.530645 0.157398 -4.530645
v 5.000000 -9.842602 5.000000
v 4.530645 0.157398 4.530645
v 5.000000 -9.842602 -5.000000
v 4.530645 0.157398 -4.530645
v -5.000000 0.157398 5.000000
v -5.000000 0.157398 -5.000000
v 5.000000 0.157398 -5.000000
v 5.000000 0.157398 5.000000
v -4.630410 -0.154050 4.618706
v -4.630410 -0.154050 -4.442585
v 4.430880 -0.154050 -4.442585
v 4.430880 -0.154050 4.618706
vn -1.0000 -0.0000 -0.0000
vn -0.0000 -0.0000 -1.0000
vn 1.0000 -0.0000 -0.0000
vn -0.0000 -0.0000 1.0000
vn -0.0000 -1.0000 -0.0000
vn -0.0000 -0.2721 -0.9623
vn -0.0000 1.0000 -0.0000
vn -0.0000 0.2721 0.9623
vn -0.9523 0.3051 -0.0000
vn 0.9523 -0.3051 -0.0000
vt 0.375000 0.000000
vt 0.625000 0.000000
vt 0.625000 0.250000
vt 0.375000 0.250000
vt 0.625000 0.500000
vt 0.375000 0.500000
vt 0.625000 0.750000
vt 0.375000 0.750000
vt 0.625000 1.000000
vt 0.375000 1.000000
vt 0.125000 0.500000
vt 0.125000 0.750000
vt 0.863266 0.738266
vt 0.636734 0.738266
vt 0.863266 0.511734
vt 0.875000 0.500000
vt 0.875000 0.750000
vt 0.636734 0.511734
s 0
usemtl roundstone
f 5/5/2 13/6/2 14/7/2 7/8/2
f 7/8/3 14/7/3 15/9/3 11/10/3
f 11/10/4 15/9/4 16/11/4 9/12/4
f 9/12/5 16/11/5 13/13/5 5/14/5
f 7/15/6 11/10/6 9/12/6 5/16/6
f 6/17/7 10/18/7 20/18/7 17/17/7
f 6/17/8 8/19/8 14/20/8 13/21/8
f 8/19/8 12/22/8 15/9/8 14/20/8
f 12/22/8 10/18/8 16/11/8 15/9/8
f 10/18/8 6/17/8 13/21/8 16/11/8
f 19/22/8 18/19/8 17/17/8 20/18/8
f 12/22/9 8/19/9 18/19/9 19/22/9
f 10/18/10 12/22/10 19/22/10 20/18/10
f 8/19/11 6/17/11 17/17/11 18/19/11
o Plane.001
v -9.788387 0.160495 9.788387
v 9.788387 0.160495 9.788387
v -9.788387 0.160495 -9.788387
v 9.788387 0.160495 -9.788387
v -4.992992 0.160495 -4.992992
v -4.992992 0.160495 4.992992
v 4.992992 0.160495 4.992992
v 4.992992 0.160495 -4.992992
v -4.992992 -1.109764 -4.992992
v -4.992992 -1.109764 4.992992
v 4.992992 -1.109764 4.992992
v 4.992992 -1.109764 -4.992992
vn -0.0000 -0.0000 -1.0000
vn -0.0000 1.0000 -0.0000
vn -1.0000 -0.0000 -0.0000
vn 1.0000 -0.0000 -0.0000
vn -0.0000 -0.0000 1.0000
vt 0.112423 0.112423
vt 0.887577 0.112423
vt 0.112423 0.887577
vt 0.000000 1.000000
vt 0.000000 0.000000
vt 1.000000 0.000000
vt 0.887576 0.887576
vt 1.000000 1.000000
s 0
usemtl grass
f 26/23/12 27/24/12 31/24/12 30/23/12
f 26/23/13 25/25/13 23/26/13 21/27/13
f 27/24/13 26/23/13 21/27/13 22/28/13
f 28/29/13 27/24/13 22/28/13 24/30/13
f 25/25/13 28/29/13 24/30/13 23/26/13
f 30/23/13 31/24/13 32/29/13 29/25/13
f 27/24/14 28/29/14 32/29/14 31/24/14
f 25/25/15 26/23/15 30/23/15 29/25/15
f 28/29/16 25/25/16 29/25/16 32/29/16
o Cube.008
v -4.332737 7.452618 -5.707296
v -4.178711 -0.331217 -8.209532
v -4.332737 9.015455 -10.568896
v -4.178711 1.231619 -13.071131
v 1.052892 7.549207 -5.676246
v 1.206918 -0.234628 -8.178481
v 1.052892 9.112043 -10.537846
v 1.206918 1.328208 -13.040081
v 8.513180 13.304768 2.693133
v 8.513180 -6.274080 2.693133
v 8.513180 13.304769 -2.693135
v 8.513180 -6.274079 -2.693135
v 13.899448 13.304768 2.693133
v 13.899448 -6.274080 2.693133
v 13.899448 13.304769 -2.693136
v 13.899450 -6.274079 -2.693135
v 8.513180 11.609392 -3.024548
v 8.513180 -4.344516 -2.327199
v 8.513180 11.375204 -8.382317
v 8.513180 -4.578704 -7.684969
v 13.899448 11.609392 -3.024549
v 13.899448 -4.344516 -2.327199
v 13.899448 11.375204 -8.382318
v 13.899448 -4.578704 -7.684968
v 8.513180 9.119547 13.698688
v 8.513180 -1.882218 14.121078
v 8.513180 8.912905 8.316386
v 8.513180 -2.088861 8.738776
v 13.899448 9.119547 13.698689
v 13.899450 -1.882218 14.121076
v 13.899448 8.912905 8.316386
v 13.899448 -2.088861 8.738776
v 2.506073 7.572286 -8.574317
v 3.653285 -1.237154 -8.574318
v 2.506073 7.572286 -13.960587
v 3.653285 -1.237153 -13.960587
v 7.847243 8.267841 -8.574317
v 8.994455 -0.541598 -8.574317
v 7.847242 8.267841 -13.960586
v 8.994455 -0.541598 -13.960587
v -2.952153 10.475138 -8.574316
v -2.722709 -1.704372 -8.574317
v -2.952153 10.475138 -13.960586
v -2.722709 -1.704372 -13.960586
v 2.434001 10.576604 -8.574317
v 2.663445 -1.602906 -8.574317
v 2.434001 10.576605 -13.960586
v 2.663445 -1.602905 -13.960586
v 8.513180 8.464137 8.250299
v 8.513182 -1.549395 8.032426
v 8.513180 8.580082 2.921372
v 8.513180 -1.433451 2.703501
v 13.899448 8.464138 8.250299
v 13.899448 -1.549396 8.032426
v 13.899448 8.580082 2.921372
v 13.899448 -1.433451 2.703501
v -8.111654 15.428335 -8.574316
v -9.677166 -6.166437 -8.574317
v -8.111654 15.428334 -13.960587
v -9.677166 -6.166437 -13.960587
v -2.736587 15.038671 -8.574316
v -4.302100 -6.556103 -8.574317
v -2.736587 15.038670 -13.960585
v -4.302100 -6.556102 -13.960586
v 6.103084 10.173740 -8.644831
v 6.315854 -1.002548 -7.015601
v 6.103084 9.724980 -11.723265
v 6.315855 -1.451308 -10.094035
v 9.235559 10.232135 -8.653343
v 9.448328 -0.944153 -7.024113
v 9.235559 9.783374 -11.731777
v 9.448330 -1.392914 -10.102548
v 7.978836 10.109114 4.815749
v 7.153802 -1.155294 4.612001
v 7.983988 10.164997 1.705283
v 7.158955 -1.099411 1.501535
v 11.103495 9.880237 4.816813
v 10.278461 -1.384171 4.613066
v 11.108648 9.936120 1.706348
v 10.283615 -1.328287 1.502601
v 6.592859 9.642863 9.918151
v 8.595087 -1.472830 9.714406
v 6.583952 9.698273 6.807689
v 8.586180 -1.417421 6.603940
v 9.676270 10.198248 9.919217
v 11.678499 -0.917447 9.715470
v 9.667364 10.253656 6.808753
v 11.669592 -0.862037 6.605005
v -7.505256 13.304768 -1.235694
v -7.505256 -6.274080 -1.235695
v -7.051531 13.304768 4.131430
v -7.051532 -6.274080 4.131430
v -12.872379 13.304769 -0.781970
v -12.872379 -6.274079 -0.781971
v -12.418655 13.304768 4.585154
v -12.418655 -6.274079 4.585155
v -7.023615 11.609393 4.461665
v -7.082358 -4.344516 3.766796
v -6.572292 11.375204 9.800391
v -6.631034 -4.578705 9.105521
v -12.390739 11.609394 4.915391
v -12.449482 -4.344516 4.220519
v -11.939415 11.375202 10.254115
v -11.998159 -4.578705 9.559243
v -8.432335 9.119549 -12.202131
v -8.467915 -1.882218 -12.623020
v -7.978944 8.912907 -6.838959
v -8.014525 -2.088861 -7.259847
v -13.799459 9.119549 -11.748407
v -13.835041 -1.882218 -12.169296
v -13.346069 8.912907 -6.385234
v -13.381649 -2.088860 -6.806123
v -0.570361 7.572285 9.485686
v -1.713496 -1.237153 9.582324
v -0.116637 7.572285 14.852811
v -1.259772 -1.237153 14.949449
v -5.892546 8.267841 9.935611
v -7.035681 -0.541597 10.032248
v -5.438822 8.267841 15.302733
v -6.581957 -0.541597 15.399373
v 4.868466 10.475137 9.025903
v 4.639838 -1.704373 9.045230
v 5.322190 10.475137 14.393025
v 5.093562 -1.704373 14.412356
v -0.498545 10.576605 9.479617
v -0.727173 -1.602905 9.498944
v -0.044821 10.576605 14.846740
v -0.273449 -1.602905 14.866069
v -7.973378 8.464138 -6.773108
v -7.955025 -1.549395 -6.556012
v -7.524484 8.580083 -1.463121
v -7.506132 -1.433451 -1.246026
v -13.340502 8.464138 -6.319384
v -13.322149 -1.549395 -6.102287
v -12.891607 8.580083 -1.009397
v -12.873255 -1.433450 -0.792302
v 10.009626 15.428335 8.591281
v 11.569574 -6.166438 8.459403
v 10.463350 15.428333 13.958405
v 12.023300 -6.166438 13.826528
v 4.653663 15.038670 9.044061
v 6.213612 -6.556104 8.912185
v 5.107387 15.038671 14.411185
v 6.667336 -6.556104 14.279311
v 6.002633 7.452617 6.052775
v 6.059936 -0.331218 8.559093
v 6.412160 9.015454 10.897096
v 6.469464 1.231618 13.403413
v 0.633530 7.549206 6.475505
v 0.690832 -0.234630 8.981822
v 1.043058 9.112043 11.319827
v 1.100360 1.328207 13.826144
v -4.148647 10.173739 9.858953
v -4.497903 -1.002548 8.253434
v -3.889328 9.724979 12.926444
v -4.238584 -1.451308 11.320930
v -7.269271 10.232134 10.131305
v -7.618527 -0.944154 8.525786
v -7.009953 9.783374 13.198798
v -7.359209 -1.392914 11.593282
v -7.151614 10.109114 -3.395776
v -6.312349 -1.155294 -3.262253
v -6.894732 10.164997 -0.295932
v -6.055468 -1.099411 -0.162408
v -10.265257 9.880237 -3.133624
v -9.425993 -1.384171 -3.000101
v -10.008375 9.936120 -0.033780
v -9.169110 -1.328288 0.099744
v -6.200375 9.642863 -8.596796
v -8.178324 -1.472830 -8.225111
v -5.929483 9.698273 -5.498137
v -7.907432 -1.417420 -5.126451
v -9.272917 10.198247 -8.338119
v -11.250866 -0.917446 -7.966434
v -9.002026 10.253656 -5.239459
v -10.979975 -0.862037 -4.867774
v -0.067200 4.106535 8.130273
v -0.026484 -1.424128 9.911088
v 0.077911 4.660305 9.846789
v 0.118626 -0.870357 11.627610
v -1.604420 4.134190 8.251304
v -1.563705 -1.396474 10.032121
v -1.459310 4.687959 9.967822
v -1.418594 -0.842703 11.748639
vn -0.9998 -0.0179 -0.0058
vn -0.0000 0.3060 -0.9520
vn 0.9998 0.0179 0.0058
vn -0.0000 -0.3060 0.9520
vn -0.0188 0.9518 0.3060
vn 0.0188 -0.9518 -0.3060
vn -1.0000 -0.0000 -0.0000
vn -0.0000 -0.0000 -1.0000
vn 1.0000 -0.0000 -0.0000
vn -0.0000 -0.0000 1.0000
vn -0.0000 1.0000 -0.0000
vn -0.0000 -1.0000 -0.0000
vn -0.0000 -0.0437 -0.9990
vn -0.0000 0.0437 0.9990
vn -0.0000 0.9990 -0.0437
vn -0.0000 -0.9990 0.0437
vn -0.0000 -0.0384 -0.9993
vn -0.0000 0.0384 0.9993
vn -0.0000 0.9993 -0.0384
vn -0.0000 -0.9993 0.0384
vn -0.9916 -0.1291 -0.0000
vn 0.9916 0.1291 -0.0000
vn -0.1291 0.9916 -0.0000
vn 0.1291 -0.9916 -0.0000
vn -0.9998 -0.0188 -0.0000
vn 0.9998 0.0188 -0.0000
vn -0.0188 0.9998 -0.0000
vn 0.0188 -0.9998 -0.0000
vn -0.0000 0.0218 -0.9998
vn -0.0000 -0.0218 0.9998
vn -0.0000 0.9998 0.0218
vn -0.0000 -0.9998 -0.0218
vn -0.9974 0.0723 -0.0000
vn 0.9974 -0.0723 -0.0000
vn 0.0723 0.9974 -0.0000
vn -0.0723 -0.9974 -0.0000
vn -0.9998 -0.0186 0.0027
vn -0.0000 -0.1443 -0.9895
vn 0.9998 0.0186 -0.0027
vn -0.0000 0.1443 0.9895
vn -0.0188 0.9894 -0.1442
vn 0.0188 -0.9894 0.1442
vn -0.9973 0.0731 -0.0003
vn 0.0017 0.0180 -0.9998
vn 0.9973 -0.0731 0.0003
vn -0.0017 -0.0180 0.9998
vn 0.0730 0.9972 0.0180
vn -0.0730 -0.9972 -0.0180
vn -0.9842 -0.1773 -0.0003
vn -0.0029 0.0178 -0.9998
vn 0.9842 0.1773 0.0003
vn 0.0029 -0.0178 0.9998
vn -0.1772 0.9840 0.0180
vn 0.1772 -0.9840 -0.0180
vn 0.9964 -0.0000 -0.0842
vn 0.0842 -0.0000 0.9964
vn -0.9964 -0.0000 0.0842
vn -0.0842 -0.0000 -0.9964
vn 0.0842 -0.0437 0.9955
vn -0.0842 0.0437 -0.9955
vn 0.0037 0.9990 0.0435
vn -0.0037 -0.9990 -0.0435
vn 0.0842 -0.0384 0.9957
vn -0.0842 0.0384 -0.9957
vn 0.0032 0.9993 0.0382
vn -0.0032 -0.9993 -0.0382
vn 0.9881 -0.1291 -0.0835
vn -0.9881 0.1291 0.0835
vn 0.1287 0.9916 -0.0109
vn -0.1287 -0.9916 0.0109
vn 0.9963 -0.0188 -0.0842
vn -0.9963 0.0188 0.0842
vn 0.0188 0.9998 -0.0016
vn -0.0188 -0.9998 0.0016
vn 0.0842 0.0218 0.9962
vn -0.0842 -0.0218 -0.9962
vn -0.0018 0.9998 -0.0217
vn 0.0018 -0.9998 0.0217
vn 0.9938 0.0723 -0.0840
vn -0.9938 -0.0723 0.0840
vn -0.0720 0.9974 0.0061
vn 0.0720 -0.9974 -0.0061
vn 0.9968 -0.0179 -0.0785
vn 0.0802 0.3060 0.9486
vn -0.9968 0.0179 0.0785
vn -0.0802 -0.3060 -0.9486
vn -0.0070 0.9518 -0.3065
vn 0.0070 -0.9518 0.3065
vn 0.9960 -0.0186 -0.0869
vn 0.0834 -0.1443 0.9860
vn -0.9960 0.0186 0.0869
vn -0.0834 0.1443 -0.9860
vn 0.0309 0.9894 0.1421
vn -0.0309 -0.9894 -0.1421
vn 0.9938 0.0731 -0.0837
vn 0.0826 0.0180 0.9964
vn -0.9938 -0.0731 0.0837
vn -0.0826 -0.0180 -0.9964
vn -0.0743 0.9972 -0.0118
vn 0.0743 -0.9972 0.0118
vn 0.9807 -0.1773 -0.0826
vn 0.0871 0.0178 0.9960
vn -0.9807 0.1773 0.0826
vn -0.0871 -0.0178 -0.9960
vn 0.1751 0.9840 -0.0329
vn -0.1751 -0.9840 0.0329
vt 0.375000 0.000000
vt 0.625000 0.000000
vt 0.625000 0.250000
vt 0.375000 0.250000
vt 0.625000 0.500000
vt 0.375000 0.500000
vt 0.625000 0.750000
vt 0.375000 0.750000
vt 0.625000 1.000000
vt 0.375000 1.000000
vt 0.125000 0.500000
vt 0.125000 0.750000
vt 0.875000 0.500000
vt 0.875000 0.750000
s 0
usemtl rocks
f 33/31/17 35/34/17 36/33/17 34/32/17
f 35/34/18 39/36/18 40/35/18 36/33/18
f 39/36/19 37/38/19 38/37/19 40/35/19
f 37/38/20 33/40/20 34/39/20 38/37/20
f 35/41/21 33/42/21 37/38/21 39/36/21
f 40/35/22 38/37/22 34/44/22 36/43/22
f 41/31/23 43/34/23 44/33/23 42/32/23
f 43/34/24 47/36/24 48/35/24 44/33/24
f 47/36/25 45/38/25 46/37/25 48/35/25
f 45/38/26 41/40/26 42/39/26 46/37/26
f 43/41/27 41/42/27 45/38/27 47/36/27
f 48/35/28 46/37/28 42/44/28 44/43/28
f 49/31/23 51/34/23 52/33/23 50/32/23
f 51/34/29 55/36/29 56/35/29 52/33/29
f 55/36/25 53/38/25 54/37/25 56/35/25
f 53/38/30 49/40/30 50/39/30 54/37/30
f 51/41/31 49/42/31 53/38/31 55/36/31
f 56/35/32 54/37/32 50/44/32 52/43/32
f 57/31/23 59/34/23 60/33/23 58/32/23
f 59/34/33 63/36/33 64/35/33 60/33/33
f 63/36/25 61/38/25 62/37/25 64/35/25
f 61/38/34 57/40/34 58/39/34 62/37/34
f 59/41/35 57/42/35 61/38/35 63/36/35
f 64/35/36 62/37/36 58/44/36 60/43/36
f 65/31/37 67/34/37 68/33/37 66/32/37
f 67/34/24 71/36/24 72/35/24 68/33/24
f 71/36/38 69/38/38 70/37/38 72/35/38
f 69/38/26 65/40/26 66/39/26 70/37/26
f 67/41/39 65/42/39 69/38/39 71/36/39
f 72/35/40 70/37/40 66/44/40 68/43/40
f 73/31/41 75/34/41 76/33/41 74/32/41
f 75/34/24 79/36/24 80/35/24 76/33/24
f 79/36/42 77/38/42 78/37/42 80/35/42
f 77/38/26 73/40/26 74/39/26 78/37/26
f 75/41/43 73/42/43 77/38/43 79/36/43
f 80/35/44 78/37/44 74/44/44 76/43/44
f 81/31/23 83/34/23 84/33/23 82/32/23
f 83/34/45 87/36/45 88/35/45 84/33/45
f 87/36/25 85/38/25 86/37/25 88/35/25
f 85/38/46 81/40/46 82/39/46 86/37/46
f 83/41/47 81/42/47 85/38/47 87/36/47
f 88/35/48 86/37/48 82/44/48 84/43/48
f 89/31/49 91/34/49 92/33/49 90/32/49
f 91/34/24 95/36/24 96/35/24 92/33/24
f 95/36/50 93/38/50 94/37/50 96/35/50
f 93/38/26 89/40/26 90/39/26 94/37/26
f 91/41/51 89/42/51 93/38/51 95/36/51
f 96/35/52 94/37/52 90/44/52 92/43/52
f 97/31/53 99/34/53 100/33/53 98/32/53
f 99/34/54 103/36/54 104/35/54 100/33/54
f 103/36/55 101/38/55 102/37/55 104/35/55
f 101/38/56 97/40/56 98/39/56 102/37/56
f 99/41/57 97/42/57 101/38/57 103/36/57
f 104/35/58 102/37/58 98/44/58 100/43/58
f 105/31/59 107/34/59 108/33/59 106/32/59
f 107/34/60 111/36/60 112/35/60 108/33/60
f 111/36/61 109/38/61 110/37/61 112/35/61
f 109/38/62 105/40/62 106/39/62 110/37/62
f 107/41/63 105/42/63 109/38/63 111/36/63
f 112/35/64 110/37/64 106/44/64 108/43/64
f 113/31/65 115/34/65 116/33/65 114/32/65
f 115/34/66 119/36/66 120/35/66 116/33/66
f 119/36/67 117/38/67 118/37/67 120/35/67
f 117/38/68 113/40/68 114/39/68 118/37/68
f 115/41/69 113/42/69 117/38/69 119/36/69
f 120/35/70 118/37/70 114/44/70 116/43/70
f 121/31/71 123/34/71 124/33/71 122/32/71
f 123/34/72 127/36/72 128/35/72 124/33/72
f 127/36/73 125/38/73 126/37/73 128/35/73
f 125/38/74 121/40/74 122/39/74 126/37/74
f 123/41/27 121/42/27 125/38/27 127/36/27
f 128/35/28 126/37/28 122/44/28 124/43/28
f 129/31/71 131/34/71 132/33/71 130/32/71
f 131/34/75 135/36/75 136/35/75 132/33/75
f 135/36/73 133/38/73 134/37/73 136/35/73
f 133/38/76 129/40/76 130/39/76 134/37/76
f 131/41/77 129/42/77 133/38/77 135/36/77
f 136/35/78 134/37/78 130/44/78 132/43/78
f 137/31/71 139/34/71 140/33/71 138/32/71
f 139/34/79 143/36/79 144/35/79 140/33/79
f 143/36/73 141/38/73 142/37/73 144/35/73
f 141/38/80 137/40/80 138/39/80 142/37/80
f 139/41/81 137/42/81 141/38/81 143/36/81
f 144/35/82 142/37/82 138/44/82 140/43/82
f 145/31/83 147/34/83 148/33/83 146/32/83
f 147/34/72 151/36/72 152/35/72 148/33/72
f 151/36/84 149/38/84 150/37/84 152/35/84
f 149/38/74 145/40/74 146/39/74 150/37/74
f 147/41/85 145/42/85 149/38/85 151/36/85
f 152/35/86 150/37/86 146/44/86 148/43/86
f 153/31/87 155/34/87 156/33/87 154/32/87
f 155/34/72 159/36/72 160/35/72 156/33/72
f 159/36/88 157/38/88 158/37/88 160/35/88
f 157/38/74 153/40/74 154/39/74 158/37/74
f 155/41/89 153/42/89 157/38/89 159/36/89
f 160/35/90 158/37/90 154/44/90 156/43/90
f 161/31/71 163/34/71 164/33/71 162/32/71
f 163/34/91 167/36/91 168/35/91 164/33/91
f 167/36/73 165/38/73 166/37/73 168/35/73
f 165/38/92 161/40/92 162/39/92 166/37/92
f 163/41/93 161/42/93 165/38/93 167/36/93
f 168/35/94 166/37/94 162/44/94 164/43/94
f 169/31/95 171/34/95 172/33/95 170/32/95
f 171/34/72 175/36/72 176/35/72 172/33/72
f 175/36/96 173/38/96 174/37/96 176/35/96
f 173/38/74 169/40/74 170/39/74 174/37/74
f 171/41/97 169/42/97 173/38/97 175/36/97
f 176/35/98 174/37/98 170/44/98 172/43/98
f 177/31/99 179/34/99 180/33/99 178/32/99
f 179/34/100 183/36/100 184/35/100 180/33/100
f 183/36/101 181/38/101 182/37/101 184/35/101
f 181/38/102 177/40/102 178/39/102 182/37/102
f 179/41/103 177/42/103 181/38/103 183/36/103
f 184/35/104 182/37/104 178/44/104 180/43/104
f 185/31/105 187/34/105 188/33/105 186/32/105
f 187/34/106 191/36/106 192/35/106 188/33/106
f 191/36/107 189/38/107 190/37/107 192/35/107
f 189/38/108 185/40/108 186/39/108 190/37/108
f 187/41/109 185/42/109 189/38/109 191/36/109
f 192/35/110 190/37/110 186/44/110 188/43/110
f 193/31/111 195/34/111 196/33/111 194/32/111
f 195/34/112 199/36/112 200/35/112 196/33/112
f 199/36/113 197/38/113 198/37/113 200/35/113
f 197/38/114 193/40/114 194/39/114 198/37/114
f 195/41/115 193/42/115 197/38/115 199/36/115
f 200/35/116 198/37/116 194/44/116 196/43/116
f 201/31/117 203/34/117 204/33/117 202/32/117
f 203/34/118 207/36/118 208/35/118 204/33/118
f 207/36/119 205/38/119 206/37/119 208/35/119
f 205/38/120 201/40/120 202/39/120 206/37/120
f 203/41/121 201/42/121 205/38/121 207/36/121
f 208/35/122 206/37/122 202/44/122 204/43/122
f 209/31/99 211/34/99 212/33/99 210/32/99
f 211/34/100 215/36/100 216/35/100 212/33/100
f 215/36/101 213/38/101 214/37/101 216/35/101
f 213/38/102 209/40/102 210/39/102 214/37/102
f 211/41/103 209/42/103 213/38/103 215/36/103
f 216/35/104 214/37/104 210/44/104 212/43/104
